<svg xmlns="http://www.w3.org/2000/svg"  viewBox="0 0 32 32" width="32px" height="32px"><path d="M 15 2 L 15 6 L 17 6 L 17 2 L 15 2 z M 5 5 L 5 7 L 7 7 L 7 5 L 5 5 z M 7 7 L 7 9 L 9 9 L 9 7 L 7 7 z M 25 5 L 25 7 L 27 7 L 27 5 L 25 5 z M 25 7 L 23 7 L 23 9 L 25 9 L 25 7 z M 12 8 L 12 10 L 20 10 L 20 8 L 12 8 z M 20 10 L 20 12 L 22 12 L 22 10 L 20 10 z M 22 12 L 22 20 L 24 20 L 24 12 L 22 12 z M 22 20 L 20 20 L 20 22 L 22 22 L 22 20 z M 20 22 L 12 22 L 12 24 L 20 24 L 20 22 z M 12 22 L 12 20 L 10 20 L 10 22 L 12 22 z M 10 20 L 10 12 L 8 12 L 8 20 L 10 20 z M 10 12 L 12 12 L 12 10 L 10 10 L 10 12 z M 2 15 L 2 17 L 6 17 L 6 15 L 2 15 z M 26 15 L 26 17 L 30 17 L 30 15 L 26 15 z M 7 23 L 7 25 L 9 25 L 9 23 L 7 23 z M 7 25 L 5 25 L 5 27 L 7 27 L 7 25 z M 23 23 L 23 25 L 25 25 L 25 23 L 23 23 z M 25 25 L 25 27 L 27 27 L 27 25 L 25 25 z M 15 26 L 15 30 L 17 30 L 17 26 L 15 26 z"/></svg>